# xmcd
#
# Track frame offsets: 
#        150
#        14945
#        26175
#        40071
#        56728
#        70074
#        82456
#        100495
#        115534
#        131771
#        143761
#
# Disc length: 2073 seconds
#
# Revision: 3
# Processed by: cddbd v1.5PL3 Copyright (c) Steve Scherf et al.
# Submitted via: ExactAudioCopy v0.95a3
#
DISCID=a408170b
DTITLE=Undertakin' Daddies - Post Atomic Hillbilly
DYEAR=2001
DGENRE=Bluegrass
TTITLE0=Isabell
TTITLE1=New Fallen Snow
TTITLE2=Invitation to the Blues
TTITLE3=I'll Break Out Again Tonight
TTITLE4=Pictou County Coal
TTITLE5=Big Timber
TTITLE6=Pushin' Up Daisies
TTITLE7=Ol' 67
TTITLE8=Haunted Honky Tonk
TTITLE9=When Someone Wants to Leave
TTITLE10=Take a Chance
EXTD=
EXTT0=
EXTT1=
EXTT2=
EXTT3=
EXTT4=
EXTT5=
EXTT6=
EXTT7=
EXTT8=
EXTT9=
EXTT10=
PLAYORDER=
